<svg width="1190" height="746" xmlns="http://www.w3.org/2000/svg" version="1.0" preserveAspectRatio="xMidYMid meet">
 <metadata>Created by potrace 1.16, written by Peter Selinger 2001-2019</metadata>

 <g>
  <title>Layer 1</title>
  <g transform="translate(0 746) scale(0.1 -0.1)" fill="#000000" id="svg_1">
   <path fill="#bd3fbf" d="m6060,6690c-134,-19 -353,-80 -430,-121c-19,-11 -44,-19 -55,-19c-11,0 -29,-7 -39,-15c-11,-8 -34,-15 -51,-15c-17,0 -39,-6 -50,-14c-11,-7 -37,-16 -57,-20c-21,-4 -38,-11 -38,-16c0,-5 -17,-12 -37,-16c-21,-4 -63,-19 -93,-34c-30,-15 -66,-31 -80,-35c-32,-9 -227,-139 -324,-216c-42,-33 -158,-144 -258,-247c-352,-361 -373,-381 -431,-407c-30,-14 -140,-45 -243,-70c-450,-105 -763,-233 -1345,-551c-344,-188 -378,-213 -575,-425c-329,-354 -431,-477 -540,-650c-68,-109 -201,-367 -233,-454c-79,-208 -160,-463 -216,-680c-69,-269 -81,-331 -90,-470c-17,-284 -22,-309 -77,-455c-83,-219 -104,-346 -74,-455c18,-71 31,-90 65,-105c27,-11 35,-9 75,14c24,14 106,92 183,173c76,81 158,167 183,191c103,99 313,193 645,288c452,130 623,211 806,382c41,38 117,102 169,142l95,73l185,-7c102,-3 203,-10 225,-16c70,-18 236,-49 360,-67c92,-14 181,-18 380,-17c232,0 270,2 351,22c210,50 337,111 689,333c39,24 88,53 109,64c21,11 61,41 89,67c72,67 64,72 -136,75c-309,6 -688,37 -825,69c-93,21 -203,70 -251,111l-42,36l21,22c42,45 219,87 625,149c285,44 370,54 560,66c390,25 955,-1 1224,-56c81,-17 495,-133 656,-184c215,-69 537,-212 784,-349c47,-27 109,-61 136,-76c141,-78 317,-191 415,-267c130,-101 276,-210 391,-293c61,-44 186,-139 278,-210c156,-123 167,-134 188,-186c15,-37 26,-98 33,-175c36,-383 51,-478 106,-644c42,-127 146,-335 221,-445c134,-192 172,-194 203,-9c7,38 32,150 57,249c36,146 46,203 50,302l6,121l96,7c53,3 148,12 211,20c269,32 1158,334 1184,401c8,20 -10,44 -33,44c-9,0 -33,9 -54,20c-20,11 -45,20 -56,20c-10,0 -56,18 -102,39c-46,21 -178,83 -294,136c-335,156 -511,219 -695,250c-47,8 -200,19 -341,23c-229,7 -259,10 -290,28c-40,24 -93,91 -133,171c-156,308 -556,954 -778,1255c-214,292 -425,535 -685,788c-193,188 -289,268 -538,450c-281,204 -570,353 -1069,551c-193,77 -221,94 -339,208c-135,131 -161,183 -166,338c-5,158 9,184 194,369c152,152 235,254 261,322c16,39 16,44 0,61c-9,10 -33,23 -54,29c-53,16 -216,22 -292,12z" id="svg_2"/>
  </g>
 </g>
</svg>